# xmcd
#
# Track frame offsets: 
#        150
#        12876
#        31653
#        52718
#        74289
#        92749
#        115900
#        136330
#        164231
#        181589
#        201336
#        211135
#        227125
#        248238
#        267006
#
# Disc length: 3919 seconds
#
# Revision: 0
# Processed by: cddbd v1.5.1PL0 Copyright (c) Steve Scherf et al.
# Submitted via: ExactAudioCopy v0.95b2
#
DISCID=c50f4d0f
DTITLE=Jon Lawton - Dr. Pyles Nerver And Headache Tablets
DYEAR=2002
DGENRE=Blues
TTITLE0=Clear The Deck
TTITLE1=Ekolu Makani
TTITLE2=The Good Life
TTITLE3=Stars
TTITLE4=Arkansas Sunset
TTITLE5=Tijuana
TTITLE6=LittleJohn
TTITLE7=The Night Before Antietam
TTITLE8=Steelin From Red
TTITLE9=Why I Even Looked 
TTITLE10=Lazy Leon
TTITLE11=Sweet Little Rose
TTITLE12=Heads Up
TTITLE13=Teenage Orangutan
TTITLE14=Hip Flip
EXTD=
EXTT0=
EXTT1=
EXTT2=
EXTT3=
EXTT4=
EXTT5=
EXTT6=
EXTT7=
EXTT8=
EXTT9=
EXTT10=
EXTT11=
EXTT12=
EXTT13=
EXTT14=
PLAYORDER=
